<svg width="549" height="129" viewBox="0 0 549 129" fill="none" xmlns="http://www.w3.org/2000/svg">
<path d="M167.273 100H144.67V30.1818H167.989C174.83 30.1818 180.705 31.5795 185.614 34.375C190.523 37.1477 194.284 41.1364 196.898 46.3409C199.534 51.5227 200.852 57.7386 200.852 64.9886C200.852 72.2614 199.523 78.5114 196.864 83.7386C194.227 88.9659 190.409 92.9886 185.409 95.8068C180.409 98.6023 174.364 100 167.273 100ZM155.205 90.7955H166.693C172.011 90.7955 176.432 89.7955 179.955 87.7955C183.477 85.7727 186.114 82.8523 187.864 79.0341C189.614 75.1932 190.489 70.5114 190.489 64.9886C190.489 59.5114 189.614 54.8636 187.864 51.0455C186.136 47.2273 183.557 44.3295 180.125 42.3523C176.693 40.375 172.432 39.3864 167.341 39.3864H155.205V90.7955ZM224.532 101.159C221.214 101.159 218.214 100.545 215.532 99.3182C212.85 98.0682 210.725 96.2614 209.157 93.8977C207.612 91.5341 206.839 88.6364 206.839 85.2045C206.839 82.25 207.407 79.8182 208.544 77.9091C209.68 76 211.214 74.4886 213.146 73.375C215.078 72.2614 217.237 71.4205 219.623 70.8523C222.009 70.2841 224.441 69.8523 226.919 69.5568C230.055 69.1932 232.6 68.8977 234.555 68.6705C236.509 68.4205 237.93 68.0227 238.816 67.4773C239.703 66.9318 240.146 66.0455 240.146 64.8182V64.5795C240.146 61.6023 239.305 59.2955 237.623 57.6591C235.964 56.0227 233.487 55.2045 230.191 55.2045C226.759 55.2045 224.055 55.9659 222.078 57.4886C220.123 58.9886 218.771 60.6591 218.021 62.5L208.441 60.3182C209.578 57.1364 211.237 54.5682 213.419 52.6136C215.623 50.6364 218.157 49.2045 221.021 48.3182C223.884 47.4091 226.896 46.9545 230.055 46.9545C232.146 46.9545 234.362 47.2045 236.703 47.7045C239.066 48.1818 241.271 49.0682 243.316 50.3636C245.384 51.6591 247.078 53.5114 248.396 55.9205C249.714 58.3068 250.373 61.4091 250.373 65.2273V100H240.419V92.8409H240.009C239.35 94.1591 238.362 95.4545 237.044 96.7273C235.725 98 234.032 99.0568 231.964 99.8977C229.896 100.739 227.419 101.159 224.532 101.159ZM226.748 92.9773C229.566 92.9773 231.975 92.4205 233.975 91.3068C235.998 90.1932 237.532 88.7386 238.578 86.9432C239.646 85.125 240.18 83.1818 240.18 81.1136V74.3636C239.816 74.7273 239.112 75.0682 238.066 75.3864C237.044 75.6818 235.873 75.9432 234.555 76.1705C233.237 76.375 231.953 76.5682 230.703 76.75C229.453 76.9091 228.407 77.0455 227.566 77.1591C225.589 77.4091 223.782 77.8295 222.146 78.4205C220.532 79.0114 219.237 79.8636 218.259 80.9773C217.305 82.0682 216.828 83.5227 216.828 85.3409C216.828 87.8636 217.759 89.7727 219.623 91.0682C221.487 92.3409 223.862 92.9773 226.748 92.9773ZM260.11 100V47.6364H269.962V55.9545H270.507C271.462 53.1364 273.144 50.9205 275.553 49.3068C277.985 47.6705 280.735 46.8523 283.803 46.8523C284.439 46.8523 285.189 46.875 286.053 46.9205C286.939 46.9659 287.632 47.0227 288.132 47.0909V56.8409C287.723 56.7273 286.996 56.6023 285.951 56.4659C284.905 56.3068 283.86 56.2273 282.814 56.2273C280.405 56.2273 278.258 56.7386 276.371 57.7614C274.508 58.7614 273.03 60.1591 271.939 61.9545C270.848 63.7273 270.303 65.75 270.303 68.0227V100H260.11ZM320.65 47.6364V55.8182H292.048V47.6364H320.65ZM299.719 35.0909H309.912V84.625C309.912 86.6023 310.207 88.0909 310.798 89.0909C311.389 90.0682 312.15 90.7386 313.082 91.1023C314.037 91.4432 315.071 91.6136 316.185 91.6136C317.003 91.6136 317.719 91.5568 318.332 91.4432C318.946 91.3295 319.423 91.2386 319.764 91.1705L321.605 99.5909C321.014 99.8182 320.173 100.045 319.082 100.273C317.991 100.523 316.628 100.659 314.991 100.682C312.31 100.727 309.81 100.25 307.491 99.25C305.173 98.25 303.298 96.7045 301.866 94.6136C300.435 92.5227 299.719 89.8977 299.719 86.7386V35.0909ZM350.47 30.1818H363.255L385.482 84.4545H386.3L408.527 30.1818H421.311V100H411.289V49.4773H410.641L390.05 99.8977H381.732L361.141 49.4432H360.493V100H350.47V30.1818ZM490.775 52.8864H480.139C479.73 50.6136 478.969 48.6136 477.855 46.8864C476.741 45.1591 475.378 43.6932 473.764 42.4886C472.15 41.2841 470.344 40.375 468.344 39.7614C466.366 39.1477 464.264 38.8409 462.037 38.8409C458.014 38.8409 454.412 39.8523 451.23 41.875C448.071 43.8977 445.571 46.8636 443.73 50.7727C441.912 54.6818 441.003 59.4545 441.003 65.0909C441.003 70.7727 441.912 75.5682 443.73 79.4773C445.571 83.3864 448.082 86.3409 451.264 88.3409C454.446 90.3409 458.025 91.3409 462.003 91.3409C464.207 91.3409 466.298 91.0455 468.275 90.4545C470.275 89.8409 472.082 88.9432 473.696 87.7614C475.309 86.5795 476.673 85.1364 477.787 83.4318C478.923 81.7045 479.707 79.7273 480.139 77.5L490.775 77.5341C490.207 80.9659 489.105 84.125 487.469 87.0114C485.855 89.875 483.775 92.3523 481.23 94.4432C478.707 96.5114 475.821 98.1136 472.571 99.25C469.321 100.386 465.775 100.955 461.934 100.955C455.889 100.955 450.503 99.5227 445.775 96.6591C441.048 93.7727 437.321 89.6477 434.594 84.2841C431.889 78.9205 430.537 72.5227 430.537 65.0909C430.537 57.6364 431.9 51.2386 434.628 45.8977C437.355 40.5341 441.082 36.4205 445.809 33.5568C450.537 30.6705 455.912 29.2273 461.934 29.2273C465.639 29.2273 469.094 29.7614 472.298 30.8295C475.525 31.875 478.423 33.4205 480.991 35.4659C483.559 37.4886 485.684 39.9659 487.366 42.8977C489.048 45.8068 490.184 49.1364 490.775 52.8864ZM499.54 100V30.1818H524.427C529.859 30.1818 534.359 31.1705 537.927 33.1477C541.495 35.125 544.165 37.8295 545.938 41.2614C547.711 44.6705 548.597 48.5114 548.597 52.7841C548.597 57.0795 547.7 60.9432 545.904 64.375C544.131 67.7841 541.45 70.4886 537.859 72.4886C534.29 74.4659 529.802 75.4545 524.393 75.4545H507.279V66.5227H523.438C526.87 66.5227 529.654 65.9318 531.79 64.75C533.927 63.5455 535.495 61.9091 536.495 59.8409C537.495 57.7727 537.995 55.4205 537.995 52.7841C537.995 50.1477 537.495 47.8068 536.495 45.7614C535.495 43.7159 533.915 42.1136 531.756 40.9545C529.62 39.7955 526.802 39.2159 523.302 39.2159H510.075V100H499.54Z" fill="black"/>
<path d="M6 60.401L55.2968 11.1048C62.1033 4.2984 73.1388 4.2984 79.9448 11.1048C86.7516 17.9111 86.7516 28.9465 79.9448 35.7529L42.7158 72.9819" stroke="#41C4FF" stroke-width="11" stroke-linecap="round"/>
<path d="M43.2285 72.4668L79.944 35.7513C86.7508 28.9449 97.7862 28.9449 104.593 35.7513L104.849 36.008C111.656 42.8144 111.656 53.8498 104.849 60.6561L60.265 105.24C57.9962 107.509 57.9962 111.187 60.265 113.456L69.4198 122.611" stroke="#03589C" stroke-width="11" stroke-linecap="round"/>
<path d="M67.6187 23.4287L31.1595 59.8874C24.3531 66.6936 24.3531 77.729 31.1595 84.5357C37.966 91.3416 49.0014 91.3416 55.8079 84.5357L92.267 48.0768" stroke="#2CB7F6" stroke-width="11" stroke-linecap="round"/>
</svg>
